<svg xmlns="http://www.w3.org/2000/svg" xmlns:xlink="http://www.w3.org/1999/xlink" viewBox="0 0 160 96"><defs><path id="a" d="M0 0a8 8 0 1016 0"/></defs><g fill="none" fill-rule="evenodd"><path fill="#FFF" d="M50 52h60v44H50z"/><path fill="#FFD1D6" d="M55 57h50v30H55z"/><g transform="translate(61 62)"><circle cx="4" cy="4" r="4" fill="#15173D"/><circle cx="5.25" cy="3.25" r="1.25" fill="#D4D6FC"/></g><g transform="translate(91 62)"><circle cx="4" cy="4" r="4" fill="#15173D"/><circle cx="5.25" cy="3.25" r="1.25" fill="#D4D6FC"/></g><g transform="translate(72 71)"><mask id="b" fill="#fff"><use xlink:href="#a"/></mask><use fill="#15163C" xlink:href="#a"/><circle cx="8" cy="10" r="5" fill="#FFA3AC" mask="url(#b)"/></g><path fill="#FF7582" d="M53 78c-2.761 0-5-1.12-5-2.5s2.239-2.5 5-2.5 5 1.12 5 2.5-2.239 2.5-5 2.5zm55 0c-2.761 0-5-1.12-5-2.5s2.239-2.5 5-2.5 5 1.12 5 2.5-2.239 2.5-5 2.5z"/><path fill="#FFF" d="M97.545 21.577c.37-3.141 3.007-5.577 6.205-5.577s5.835 2.436 6.205 5.577H110V52H97.5V21.577h.045zm-47.5 0C50.415 18.436 53.052 16 56.25 16s5.835 2.436 6.205 5.577h.045V52H50V21.577h.045z"/></g></svg>